<svg xmlns="http://www.w3.org/2000/svg" xmlns:xlink="http://www.w3.org/1999/xlink" width="181.92" height="44.286" viewBox="0 0 181.92 44.286"><defs><clipPath id="a"><path d="M0,8.65H181.92V-35.636H0Z" transform="translate(0 35.636)" fill="none"/></clipPath></defs><g transform="translate(0 35.636)"><g transform="translate(0 -35.636)" clip-path="url(#a)"><g transform="translate(0 0)"><path d="M10.339,2.254C.476,2.254-4.487,9.262-4.487,18.13v.931C-4.487,27.993.476,35,10.339,35,18.4,35,22.93,30.474,24.664,24.08h-5.21c-1.551,4.215-4.526,6.761-9.116,6.761-5.956,0-9.68-4.463-9.862-11.35H25.284V18.123c0-8.868-4.9-15.876-14.945-15.876Zm-9.68,13.4C1.407,9.945,5,6.477,10.339,6.477s9.058,3.476,9.8,9.179ZM-30.183-9.286-42.591,34.133h5.584L-33.1,20.3h16.131l3.9,13.832h5.584L-19.891-9.286h-10.3ZM-31.8,15.585l5.64-21.255h2.249l5.64,21.255Zm74.46,3.286c0-8.065,6.761-13.029,14.268-10.73V2.557C45.108,1.3,42.662,9.671,42.662,9.671V3.114H30.5V7.457h7.2V29.791H28.274v4.342h28.7V29.791h-14.3V18.871Zm94.149,11.809a1.116,1.116,0,0,0,.424-.925,1.151,1.151,0,0,0-.19-.669,1.21,1.21,0,0,0-.537-.43,1.882,1.882,0,0,0-.8-.155h-1.657v3.941h.733V31.017h.739l.973,1.424h.831l-1.071-1.5a1.45,1.45,0,0,0,.557-.267m-2.029-.205V29.05h.916a.884.884,0,0,1,.6.176.654.654,0,0,1,.205.536.669.669,0,0,1-.205.536.889.889,0,0,1-.6.176ZM75.267,2.247c-9.862,0-14.826,7.008-14.826,15.876v.931c0,8.933,4.964,15.939,14.826,15.939s14.945-7.007,14.945-15.939v-.931c0-8.868-4.9-15.876-14.945-15.876m9.989,16.807c0,7.135-3.785,11.787-9.989,11.787S65.4,26.188,65.4,19.054v-.931c0-7.133,3.785-11.659,9.862-11.659s9.989,4.526,9.989,11.659Zm53.6,9.546a3.339,3.339,0,0,0-1.311-1.29,4.242,4.242,0,0,0-3.9.007,3.488,3.488,0,0,0-1.312,1.29,3.661,3.661,0,0,0-.472,1.847,3.564,3.564,0,0,0,.472,1.841,3.366,3.366,0,0,0,1.312,1.3,4.213,4.213,0,0,0,3.9,0,3.51,3.51,0,0,0,1.311-1.3,3.841,3.841,0,0,0,0-3.695m-.676,3.334a2.71,2.71,0,0,1-1.036,1.051,3.01,3.01,0,0,1-1.551.388,2.979,2.979,0,0,1-1.543-.388A2.816,2.816,0,0,1,133,31.933a3.145,3.145,0,0,1,0-2.975,2.676,2.676,0,0,1,1.044-1.05,3.281,3.281,0,0,1,3.094,0,2.81,2.81,0,0,1,1.036,1.05,3.145,3.145,0,0,1,0,2.975M111.75,2.247A13.353,13.353,0,0,0,100.71,7.479V3.114H95.747V34.127h4.962V17.439c0-7.135,2.919-10.92,9.306-10.92,5.457,0,9.306,2.975,9.306,10.11v17.49h4.964V16.629c0-8.933-4.1-14.388-12.528-14.388Z" transform="translate(42.591 9.286)" fill="#212121"/></g></g></g></svg>