<?xml version="1.0" encoding="UTF-8" standalone="no" ?>
<!DOCTYPE svg PUBLIC "-//W3C//DTD SVG 1.1//EN" "http://www.w3.org/Graphics/SVG/1.1/DTD/svg11.dtd">
<svg xmlns="http://www.w3.org/2000/svg" xmlns:xlink="http://www.w3.org/1999/xlink" version="1.1" width="1080" height="1080" viewBox="0 0 1080 1080" xml:space="preserve">
<desc>Created with Fabric.js 5.2.4</desc>
<defs>
</defs>
<g transform="matrix(1 0 0 1 540 540)" id="5e57cfe8-ed39-4fc8-9c55-c70f92d65ff2"  >
</g>
<g transform="matrix(1 0 0 1 540 540)" id="ea92968b-78b6-47b2-b5fa-0e8a4a07fe96"  >
<rect style="stroke: none; stroke-width: 1; stroke-dasharray: none; stroke-linecap: butt; stroke-dashoffset: 0; stroke-linejoin: miter; stroke-miterlimit: 4; fill: rgb(255,255,255); fill-rule: nonzero; opacity: 1; visibility: hidden;" vector-effect="non-scaling-stroke"  x="-540" y="-540" rx="0" ry="0" width="1080" height="1080" />
</g>
<g transform="matrix(3.48 0 0 3.48 536.72 525.56)"  >
<polygon style="stroke: none; stroke-width: 1; stroke-dasharray: none; stroke-linecap: butt; stroke-dashoffset: 0; stroke-linejoin: miter; stroke-miterlimit: 4; fill: rgb(0,163,166); fill-rule: nonzero; opacity: 1;" vector-effect="non-scaling-stroke"  points="0.91,68.86 -59.18,34.16 -59.18,-35.21 -0.9,-68.86 2.72,-62.56 -51.91,-31.02 -51.91,29.97 0.91,60.46 55.55,28.92 59.18,35.22 0.91,68.86 " />
</g>
<g transform="matrix(3.48 0 0 3.48 539.88 750.67)"  >
<path style="stroke: none; stroke-width: 1; stroke-dasharray: none; stroke-linecap: butt; stroke-dashoffset: 0; stroke-linejoin: miter; stroke-miterlimit: 4; fill: rgb(0,170,225); fill-rule: nonzero; opacity: 1;" vector-effect="non-scaling-stroke"  transform=" translate(-300, -291.66)" d="M 300 275.11 C 293.3052400968443 275.1100012221065 287.26987786662465 279.14336212431334 284.70883935710845 285.32890105909325 C 282.14780084759224 291.5144399938732 283.5655824028667 298.63367400315644 288.3009229291067 303.3661532964501 C 293.03626345534667 308.0986325897437 300.1563530886553 309.51211093448853 306.3403429708012 306.9473342778533 C 312.52433285294705 304.38255762121804 316.5540451721468 298.3447586810494 316.55 291.65000000000003 C 316.55000080205957 287.26158609790303 314.80602601743783 283.0530562032713 311.7020111614727 279.95091688498354 C 308.5979963055076 276.84877756669573 304.38841310003755 275.10734678724174 300 275.11 Z" stroke-linecap="round" />
</g>
<g transform="matrix(3.48 0 0 3.48 539.88 296.58)"  >
<path style="stroke: none; stroke-width: 1; stroke-dasharray: none; stroke-linecap: butt; stroke-dashoffset: 0; stroke-linejoin: miter; stroke-miterlimit: 4; fill: rgb(0,170,225); fill-rule: nonzero; opacity: 1;" vector-effect="non-scaling-stroke"  transform=" translate(-300, -161.21)" d="M 300 144.66 C 290.8596873903004 144.66 283.45 152.06968739030037 283.45 161.21 C 283.45 170.3503126096996 290.8596873903004 177.76 300 177.76 C 309.1403126096996 177.76 316.55 170.35031260969964 316.55 161.21 C 316.55 156.82066709315555 314.80634429195237 152.61110983467762 311.7026172286374 149.50738277136264 C 308.5988901653224 146.40365570804767 304.38933290684446 144.66 300 144.66 Z" stroke-linecap="round" />
</g>
<g transform="matrix(3.48 0 0 3.48 343.38 637.19)"  >
<circle style="stroke: none; stroke-width: 1; stroke-dasharray: none; stroke-linecap: butt; stroke-dashoffset: 0; stroke-linejoin: miter; stroke-miterlimit: 4; fill: rgb(0,170,225); fill-rule: nonzero; opacity: 1;" vector-effect="non-scaling-stroke"  cx="0" cy="0" r="16.55" />
</g>
<g transform="matrix(3.48 0 0 3.48 736.39 637.19)"  >
<circle style="stroke: none; stroke-width: 1; stroke-dasharray: none; stroke-linecap: butt; stroke-dashoffset: 0; stroke-linejoin: miter; stroke-miterlimit: 4; fill: rgb(0,170,225); fill-rule: nonzero; opacity: 1;" vector-effect="non-scaling-stroke"  cx="0" cy="0" r="16.55" />
</g>
<g transform="matrix(3.48 0 0 3.48 343.38 410.27)"  >
<circle style="stroke: none; stroke-width: 1; stroke-dasharray: none; stroke-linecap: butt; stroke-dashoffset: 0; stroke-linejoin: miter; stroke-miterlimit: 4; fill: rgb(0,170,225); fill-rule: nonzero; opacity: 1;" vector-effect="non-scaling-stroke"  cx="0" cy="0" r="16.55" />
</g>
<g transform="matrix(3.48 0 0 3.48 540 524.09)"  >
<path style="stroke: none; stroke-width: 1; stroke-dasharray: none; stroke-linecap: butt; stroke-dashoffset: 0; stroke-linejoin: miter; stroke-miterlimit: 4; fill: rgb(0,69,141); fill-rule: nonzero; opacity: 1;" vector-effect="non-scaling-stroke"  transform=" translate(-300.03, -226.56)" d="M 419.32 267.29 L 419.32 185.64 C 432.40366808917383 181.71169109399196 439.9465723421767 168.04464497258778 436.29617844326197 154.88073195587978 C 432.6457845443473 141.7168189391718 419.1415163761167 133.88621899439923 405.9032610098637 137.2570610830412 C 392.6650056436106 140.62790317168316 384.5502211763397 153.9633381966194 387.64 167.26999999999998 L 317.29 207.2 C 308.2250614616506 198.49006823625754 294.14364695748554 197.74645108060417 284.2117700287964 205.45319116357533 C 274.2798931001073 213.15993124654645 271.5030855328348 226.98485586285565 277.6888543608535 237.9289084047349 C 283.8746231888722 248.87296094661414 297.15106394069306 253.6243104260445 308.8761445480639 249.09016146689484 C 320.6012251554347 244.55601250774518 327.22676407007475 232.10846515885416 324.44 219.85 L 394.83 179.91 C 397.67156284109564 182.572772790069 401.09588520429753 184.53490950418367 404.83 185.64 L 404.83 267.28999999999996 C 394.2767303173466 270.4493415864772 387.0351632291668 280.144025063474 387 291.16 C 387.01783893558945 293.07370913479394 387.2526731096726 294.979220718783 387.7 296.84000000000003 L 317.1 337.6 C 307.5155712207654 328.52047301826104 292.5044287792346 328.52047301826104 282.92 337.6 L 212.32000000000002 296.84000000000003 C 212.76732689032738 294.979220718783 213.00216106441056 293.07370913479394 213.02 291.16 C 212.98883023342566 280.1522724047034 205.761390210337 270.4601941265503 195.22 267.29 L 195.22 185.64 C 205.7534709165084 182.46258056991726 212.97149902353846 172.77223574906193 213 161.77 C 212.98216106441052 159.8562908652061 212.74732689032737 157.95077928121705 212.3 156.09 L 282.9 115.33000000000001 C 291.5849996915901 123.38460746787162 304.73040031740584 124.23877189276968 314.3847161078468 117.37582006991278 C 324.0390318982878 110.51286824705586 327.55199161953317 97.81679529220617 322.7986505834914 86.96729437744081 C 318.0453095474496 76.11779346267544 306.33053940798095 70.09323413793045 294.74045573581907 72.53779577075937 C 283.15037206365713 74.9823574035883 274.86664676809687 85.2249669199983 274.9 97.07000000000001 C 274.91783893558943 98.98370913479391 275.1526731096726 100.88922071878295 275.59999999999997 102.75 L 205 143.51 C 197.48573563033304 136.42440260908458 186.38782114239285 134.68895040018293 177.06914182278317 139.1422722099865 C 167.75046250317348 143.59559401979007 162.12952796066736 153.3208495547298 162.92256268840953 163.6184684699931 C 163.7155974161517 173.9160873852564 170.75933313404775 182.66601809855064 180.64999999999998 185.64 L 180.65 267.28999999999996 C 170.7593331340478 270.2639819014493 163.71559741615178 279.01391261474356 162.9225626884096 289.31153153000685 C 162.12952796066745 299.6091504452701 167.75046250317354 309.3344059802098 177.0691418227832 313.7877277900134 C 186.38782114239285 318.24104959981696 197.48573563033304 316.50559739091534 205 309.42 L 275.6 350.18 C 273.16264594590666 360.276849857344 277.20396588755875 370.83105412573315 285.7616124524801 376.71779831047934 C 294.31925901740146 382.6045424952256 305.62074098259865 382.6045424952256 314.17838754751995 376.71779831047934 C 322.7360341124413 370.83105412573315 326.7773540540934 360.276849857344 324.34000000000003 350.18 L 395 309.42 C 402.51426436966693 316.5055973909154 413.61217885760715 318.2410495998171 422.9308581772168 313.7877277900135 C 432.2495374968265 309.3344059802099 437.87047203933264 299.6091504452702 437.0774373115905 289.3115315300069 C 436.2844025838483 279.0139126147436 429.2406668659522 270.26398190144937 419.35 267.29 Z" stroke-linecap="round" />
</g>
</svg>