<svg xmlns="http://www.w3.org/2000/svg" class="img-fluid" id="outputsvg" style="transform: none; transform-origin: 50% 50%; cursor: move; max-height: none;" viewBox="0 0 28000 12000"><g id="l1Q38NavIy9k4i859Te0Rs0" fill="rgb(252,251,253)" style="transform: none;"><g style="transform: none;"><path id="pFxDwl0kN" d="M0 6000 l0 -6000 14000 0 14000 0 0 6000 0 6000 -14000 0 -14000 0 0 -6000z m14089 4754 c80 -21 121 -46 184 -113 69 -74 92 -129 92 -221 0 -61 -6 -85 -27 -130 -36 -73 -122 -161 -173 -178 -147 -49 -169 -49 -274 0 -188 88 -266 314 -163 469 64 98 74 107 144 139 63 29 111 45 142 49 6 1 39 -6 75 -15z m272 -1019 c235 -24 596 -98 610 -125 4 -8 22 -51 40 -95 17 -44 53 -132 79 -195 27 -63 64 -153 83 -200 35 -84 35 -85 73 -88 31 -2 96 21 314 113 270 114 275 116 305 101 75 -39 379 -249 405 -281 8 -10 22 -20 31 -24 31 -11 297 -260 417 -390 191 -206 333 -392 465 -610 l44 -74 -39 -96 c-22 -53 -60 -145 -85 -206 -55 -135 -81 -195 -93 -217 -6 -10 -10 -37 -10 -62 l0 -43 133 -53 c132 -53 305 -125 384 -161 23 -10 46 -19 52 -19 16 0 26 -27 54 -140 128 -528 132 -1135 11 -1650 -48 -202 -39 -183 -98 -202 -29 -9 -77 -28 -107 -41 -30 -14 -111 -48 -180 -75 -69 -27 -150 -61 -181 -76 -30 -14 -60 -26 -66 -26 -15 0 -16 -63 -2 -88 14 -26 52 -113 61 -142 4 -14 29 -74 54 -135 54 -125 82 -197 97 -241 9 -28 4 -40 -78 -171 -101 -160 -205 -302 -307 -418 -114 -129 -316 -332 -397 -397 -41 -34 -91 -77 -111 -96 -56 -52 -325 -240 -430 -300 -52 -30 -58 -31 -85 -18 -16 8 -69 31 -119 51 -49 20 -103 43 -120 50 -129 59 -283 115 -317 115 -33 0 -40 -4 -49 -27 -6 -15 -16 -41 -24 -58 -7 -16 -57 -136 -111 -266 l-98 -237 -76 -20 c-186 -52 -462 -96 -700 -112 -284 -19 -731 19 -1010 86 -188 45 -177 39 -193 87 -9 23 -39 96 -67 162 -28 66 -62 147 -75 180 -13 33 -37 92 -54 130 l-30 70 -45 3 c-26 2 -57 -3 -75 -12 -16 -9 -105 -47 -198 -85 -92 -38 -200 -83 -239 -99 l-70 -29 -55 33 c-30 19 -61 37 -69 41 -29 13 -135 87 -254 176 -275 208 -497 425 -713 699 -92 116 -113 145 -145 195 -18 29 -60 95 -94 147 l-60 94 21 48 c12 27 47 114 79 194 32 80 75 185 97 233 40 91 48 137 26 155 -7 6 -42 22 -77 35 -116 44 -500 204 -508 212 -6 6 -49 184 -71 295 -51 257 -71 542 -59 830 8 193 49 522 77 614 5 17 19 74 31 126 l21 95 62 24 c66 25 365 150 433 181 23 11 54 22 68 26 23 5 26 11 26 48 0 45 -80 253 -201 523 -23 51 -23 58 -1 103 23 46 147 234 190 287 19 24 51 65 71 93 60 83 185 231 248 295 123 126 418 395 432 395 5 0 55 34 110 75 55 41 103 75 106 75 3 0 41 25 83 55 110 76 125 81 181 54 25 -12 116 -50 202 -84 86 -34 174 -70 195 -80 21 -9 54 -23 72 -31 18 -8 49 -14 70 -14 37 0 37 1 65 73 32 80 51 126 109 267 22 52 55 131 72 174 l32 80 50 13 c422 108 870 142 1305 98z m-3351 -252 c43 -17 106 -59 141 -93 33 -33 86 -147 95 -205 11 -74 -27 -174 -92 -244 -93 -100 -199 -142 -305 -122 -86 17 -131 44 -197 117 -70 77 -108 176 -98 249 11 67 68 175 123 228 88 85 226 114 333 70z m6188 -45 c110 -27 226 -134 257 -237 47 -156 -32 -327 -186 -404 -166 -83 -363 -9 -451 170 -39 80 -45 135 -23 217 27 101 117 199 223 242 64 26 111 30 180 12z m-7486 -3066 c112 -55 195 -166 213 -285 11 -74 -25 -174 -88 -243 -27 -30 -54 -54 -59 -54 -6 0 -23 -10 -38 -23 -15 -13 -54 -32 -86 -42 -51 -16 -66 -17 -117 -6 -119 25 -207 94 -264 208 -41 84 -46 140 -19 222 36 105 99 174 206 225 72 34 179 33 252 -2z m8780 -67 c91 -31 160 -96 205 -194 42 -88 46 -160 14 -235 -12 -26 -21 -53 -21 -60 0 -13 -67 -80 -120 -119 -19 -14 -67 -35 -107 -47 -68 -20 -74 -21 -132 -6 -98 25 -200 100 -240 176 -35 67 -54 140 -47 182 23 144 130 269 271 315 44 14 116 10 177 -12z m-7543 -3045 c24 -11 51 -20 61 -20 33 0 130 -128 161 -214 29 -78 25 -139 -15 -222 -24 -51 -48 -83 -88 -117 -81 -69 -137 -92 -228 -92 -89 1 -144 25 -229 101 -74 67 -105 136 -106 235 0 67 4 83 37 150 39 79 91 128 186 176 59 30 158 31 221 3z m6190 -45 c30 -8 59 -19 64 -24 6 -6 18 -11 27 -11 15 0 130 -108 130 -123 0 -4 8 -20 19 -35 31 -44 45 -139 31 -206 -19 -90 -109 -200 -200 -242 -133 -62 -260 -41 -368 60 -71 66 -130 200 -117 263 19 88 32 123 66 173 55 81 86 106 169 134 87 30 106 31 179 11z m-3139 -1256 c111 -26 201 -95 253 -194 26 -52 31 -71 31 -140 1 -71 -3 -88 -32 -147 -49 -100 -135 -167 -248 -194 -124 -29 -269 42 -352 173 -43 67 -60 157 -43 225 32 127 143 240 270 274 57 16 66 16 121 3z"/><path id="p2S6wRQp2" d="M13820 8504 c-74 -30 -274 -113 -445 -184 -170 -71 -404 -167 -520 -215 -115 -47 -221 -91 -235 -97 -14 -6 -38 -17 -55 -24 -89 -35 -306 -125 -344 -142 l-44 -20 -154 -374 c-84 -205 -158 -382 -163 -393 -19 -39 -210 -506 -210 -513 0 -4 -9 -25 -20 -47 -11 -22 -56 -127 -100 -234 -88 -214 -96 -255 -61 -333 11 -24 27 -63 37 -88 10 -25 25 -63 35 -85 9 -22 33 -78 52 -125 65 -158 174 -424 285 -690 227 -549 259 -626 278 -673 12 -31 28 -52 42 -58 12 -5 41 -17 65 -28 23 -10 101 -42 172 -71 148 -59 171 -69 238 -99 26 -12 76 -32 110 -45 34 -13 215 -88 402 -166 187 -79 360 -151 385 -161 25 -9 116 -47 203 -83 212 -88 209 -88 448 9 101 42 198 82 214 89 17 8 185 78 375 156 391 161 492 202 570 236 216 92 392 164 401 164 5 0 14 12 20 28 5 15 16 41 24 57 8 17 57 134 109 260 111 269 347 840 416 1005 181 434 172 410 168 469 -3 37 -20 95 -52 171 -26 63 -63 151 -81 195 -19 44 -102 244 -185 445 -84 201 -176 424 -205 495 -53 132 -155 374 -181 432 -8 17 -14 36 -14 43 0 6 -17 18 -37 26 -21 8 -51 21 -68 29 -16 7 -147 61 -290 120 -143 59 -330 137 -415 172 -85 36 -200 83 -255 105 -55 22 -118 48 -140 58 -162 73 -587 240 -611 240 -16 -1 -90 -26 -164 -56z"/></g></g><g id="l761ftSpi7MFauKfOF9aKBD" fill="rgb(55,201,206)" style="transform: none;"><g style="transform: none;"><path id="px1T3qxFu" d="M10771 9516 c-96 -32 -164 -97 -211 -198 -68 -147 -47 -292 61 -411 67 -74 112 -101 198 -118 139 -27 266 15 363 120 106 114 126 267 57 416 -35 74 -60 103 -124 147 -63 43 -110 58 -193 64 -64 4 -90 0 -151 -20z"/><path id="pb8t7dCHS" d="M16988 9456 c-65 -27 -101 -55 -162 -126 -55 -64 -80 -148 -75 -253 12 -226 228 -389 454 -342 76 16 173 71 209 118 31 41 71 118 80 152 13 51 8 173 -10 229 -32 101 -148 207 -256 234 -77 20 -175 15 -240 -12z"/><path id="pZbopOPt0" d="M12072 9275 c-23 -13 -71 -44 -107 -69 -35 -25 -66 -46 -70 -46 -3 0 -51 -34 -106 -75 -55 -41 -105 -75 -110 -75 -14 0 -309 -269 -432 -395 -63 -64 -188 -212 -248 -295 -20 -28 -52 -69 -71 -93 -46 -56 -165 -239 -201 -306 -22 -43 -26 -59 -18 -75 5 -12 19 -41 29 -66 11 -25 33 -76 50 -115 63 -145 152 -369 152 -382 0 -7 -7 -13 -15 -13 -8 0 -15 -7 -15 -15 0 -19 48 -20 87 -1 15 8 51 23 78 35 175 71 318 131 440 183 77 33 167 70 200 83 33 13 110 44 170 70 61 25 139 57 175 71 107 41 131 54 140 78 5 13 19 26 32 29 20 5 35 32 87 159 145 348 193 463 278 668 50 118 107 256 127 306 35 89 46 154 26 154 -5 0 -10 -7 -10 -15 0 -23 -2 -23 -124 30 -21 10 -109 46 -195 80 -86 35 -182 74 -213 89 -68 31 -81 31 -136 1z"/><path id="phVc3646e" d="M15536 9178 c-262 -110 -290 -120 -301 -105 -17 24 -25 21 -25 -10 0 -29 99 -285 113 -291 4 -2 7 -10 7 -18 0 -8 29 -83 64 -167 35 -83 67 -163 71 -177 4 -14 16 -41 26 -60 18 -35 199 -475 199 -485 0 -3 -9 -5 -20 -5 -45 0 -3 -33 68 -55 13 -4 28 -19 33 -33 8 -23 29 -35 132 -76 160 -64 680 -277 782 -321 240 -102 302 -125 340 -125 35 1 38 2 23 14 -20 15 -22 29 -8 54 12 22 38 82 93 217 25 61 63 155 86 209 23 55 41 110 41 124 0 24 -31 81 -119 217 -94 147 -242 333 -393 496 -112 121 -387 380 -411 388 -7 2 -25 16 -42 31 -85 78 -422 300 -455 300 -8 -1 -145 -55 -304 -122z"/><path id="p13MAEY3vl" d="M14540 8311 c0 -9 39 -30 93 -50 25 -10 27 -9 27 14 0 20 -5 25 -25 25 -14 0 -25 5 -25 10 0 6 -16 10 -35 10 -19 0 -35 -4 -35 -9z"/><path id="p1DSd1iRLF" d="M12590 7980 c0 -23 26 -26 53 -6 25 20 21 26 -18 26 -28 0 -35 -4 -35 -20z"/><path id="pCyEmDJnn" d="M12490 7935 c0 -24 1 -25 32 -12 46 19 48 37 4 37 -32 0 -36 -3 -36 -25z"/><path id="psluM5UdL" d="M12390 7895 c0 -24 1 -25 32 -12 46 19 48 37 4 37 -32 0 -36 -3 -36 -25z"/><path id="p122nCNs4o" d="M15512 7908 c3 -7 19 -18 36 -25 31 -13 32 -12 32 12 0 22 -4 25 -36 25 -23 0 -34 -4 -32 -12z"/><path id="p107vJnV3F" d="M11640 6500 c0 -45 11 -52 27 -17 24 49 24 57 -2 57 -22 0 -25 -4 -25 -40z"/><path id="pPvhZIwFX" d="M11470 5951 c0 -42 10 -61 31 -61 23 0 24 21 4 60 -20 38 -35 38 -35 1z"/><path id="pIvi5nv0U" d="M17020 4802 c0 -4 -27 -15 -59 -25 -59 -18 -101 -34 -426 -169 -99 -41 -286 -119 -415 -172 -129 -54 -250 -104 -267 -112 -29 -12 -33 -12 -33 1 0 8 -4 15 -9 15 -10 0 -41 -61 -41 -80 0 -6 -13 -16 -29 -21 -19 -7 -32 -20 -36 -37 -3 -14 -17 -49 -30 -77 -12 -27 -45 -104 -73 -170 -27 -66 -95 -228 -150 -360 -197 -470 -232 -562 -232 -607 0 -38 1 -40 14 -23 13 18 18 17 132 -29 66 -27 137 -57 159 -66 22 -10 81 -35 130 -55 50 -21 109 -46 132 -56 23 -10 47 -19 52 -19 32 0 432 269 510 342 20 19 70 62 111 96 143 116 405 395 541 576 100 134 258 386 259 413 0 12 -12 50 -26 85 -15 35 -44 106 -66 158 -21 52 -48 114 -58 138 -11 23 -20 47 -20 52 0 10 -43 111 -60 142 -14 24 -13 28 8 28 18 1 52 22 52 34 0 3 -16 6 -35 6 -19 0 -35 -4 -35 -8z"/><path id="p19fpZm2fk" d="M10910 4792 c0 -4 9 -13 20 -20 19 -12 19 -14 -16 -89 -20 -43 -44 -101 -54 -130 -10 -28 -51 -128 -90 -222 l-71 -170 66 -103 c133 -208 147 -228 270 -385 264 -338 665 -687 1032 -898 l63 -36 197 82 c109 44 240 99 290 121 87 38 123 43 123 18 0 -5 5 -10 10 -10 26 0 2 79 -96 317 -58 142 -112 272 -120 288 -9 17 -51 118 -94 225 -43 107 -99 244 -124 305 -26 60 -46 116 -46 123 0 7 -15 19 -34 27 -20 9 -36 24 -40 37 -4 17 -24 30 -78 52 -76 30 -214 87 -333 138 -70 31 -107 46 -395 163 -223 91 -350 144 -387 161 -33 15 -93 19 -93 6z"/><path id="pEvKG10DM" d="M15383 4090 c-51 -23 -55 -40 -10 -40 42 0 60 12 55 38 l-3 21 -42 -19z"/><path id="pOBL2cxDm" d="M12590 4066 c0 -23 4 -26 35 -26 53 0 46 13 -27 48 -5 2 -8 -8 -8 -22z"/><path id="pCGUFmY2o" d="M12780 3985 c0 -22 4 -25 36 -25 44 0 42 18 -4 37 -31 13 -32 12 -32 -12z"/><path id="pWfRSmotz" d="M12880 3945 c0 -22 4 -25 36 -25 44 0 42 18 -4 37 -31 13 -32 12 -32 -12z"/><path id="p5UrwErjd" d="M10784 3310 c-64 -7 -105 -27 -187 -88 -36 -28 -58 -56 -85 -111 -36 -72 -37 -79 -37 -180 0 -94 3 -112 27 -162 30 -63 105 -137 183 -177 45 -24 61 -27 155 -27 124 0 169 16 258 92 41 35 64 65 90 120 31 67 34 82 33 152 -1 47 -9 98 -20 128 -31 84 -128 213 -161 213 -9 0 -37 9 -61 19 -55 24 -117 30 -195 21z"/><path id="pOTSKzo2H" d="M16930 3234 c-83 -28 -115 -53 -169 -134 -64 -95 -85 -215 -56 -316 83 -289 433 -377 638 -160 32 33 67 80 78 102 40 84 34 260 -12 326 -11 15 -19 31 -19 35 0 15 -115 123 -131 123 -8 0 -20 5 -26 11 -17 17 -114 39 -173 39 -32 0 -86 -11 -130 -26z"/></g></g><g id="l43eoOCjlDoww5UQfaNDCD8" fill="rgb(56,152,207)" style="transform: none;"><g style="transform: none;"><path id="p1FXdBzzrc" d="M13944 10791 c-16 -4 -62 -22 -100 -40 -55 -25 -78 -43 -107 -82 -74 -99 -81 -124 -82 -254 0 -87 3 -107 26 -155 75 -157 271 -252 424 -206 117 35 131 42 183 96 29 30 65 80 80 110 24 49 27 66 27 160 0 87 -4 113 -22 152 -25 54 -101 140 -153 173 -67 43 -198 64 -276 46z"/><path id="p40UufF7W" d="M13770 9780 c-241 -13 -518 -55 -744 -113 l-50 -13 -32 -80 c-17 -43 -50 -122 -72 -174 -45 -109 -73 -177 -110 -270 -15 -36 -32 -76 -39 -89 -11 -23 -10 -26 20 -37 49 -17 181 -75 192 -84 6 -4 42 -17 81 -29 39 -11 77 -28 84 -36 7 -8 20 -15 29 -15 9 0 63 -20 121 -44 58 -23 179 -73 270 -110 91 -38 188 -78 215 -91 28 -12 71 -30 98 -40 38 -14 47 -22 47 -41 0 -29 -3 -29 60 -4 45 18 54 18 78 6 55 -28 70 -29 74 -4 2 18 20 30 90 59 48 19 91 38 94 42 4 4 13 7 21 7 7 0 32 9 56 19 78 36 141 62 228 96 48 18 113 45 145 60 33 15 151 64 264 110 168 68 237 96 267 110 1 1 -18 50 -43 111 -82 196 -141 337 -173 419 -18 44 -36 87 -40 95 -14 26 -370 100 -606 125 -179 19 -438 25 -625 15z"/><path id="pqEwSxvcV" d="M13420 8340 c0 -5 -9 -10 -20 -10 -11 0 -20 -4 -20 -10 0 -5 -11 -10 -25 -10 -14 0 -25 -4 -25 -10 0 -5 -9 -10 -19 -10 -30 0 -51 -11 -51 -26 0 -9 -12 -14 -35 -14 -31 0 -35 -3 -35 -25 l0 -25 38 16 c20 8 88 37 149 62 116 48 141 72 78 72 -19 0 -35 -4 -35 -10z"/><path id="ppuMoUAn9" d="M14572 8298 c3 -9 148 -78 164 -78 2 0 4 10 4 23 0 17 -9 26 -33 35 -18 7 -41 12 -50 12 -9 0 -17 5 -17 10 0 6 -16 10 -36 10 -23 0 -34 -4 -32 -12z"/><path id="paxroO9dr" d="M13090 8185 c0 -29 2 -30 40 -10 40 21 38 35 -5 35 -31 0 -35 -3 -35 -25z"/><path id="psM8GzZ9t" d="M15032 8108 c3 -7 36 -26 74 -41 125 -51 114 -49 114 -22 0 22 -4 25 -35 25 -24 0 -35 5 -35 15 0 9 -9 15 -25 15 -14 0 -25 5 -25 10 0 6 -16 10 -36 10 -24 0 -34 -4 -32 -12z"/><path id="p1HHdDMiFz" d="M12600 7985 c0 -29 2 -30 40 -10 40 21 38 35 -5 35 -31 0 -35 -3 -35 -25z"/><path id="p7xr9rgCz" d="M12510 7960 c0 -5 -11 -10 -25 -10 -20 0 -25 -5 -25 -25 l0 -25 52 21 c63 25 68 28 68 40 0 5 -16 9 -35 9 -19 0 -35 -4 -35 -10z"/><path id="paC7R6uh" d="M12360 7885 c0 -24 1 -25 32 -12 46 19 48 37 4 37 -32 0 -36 -3 -36 -25z"/><path id="piUq2eUlg" d="M15562 7888 c3 -7 19 -18 36 -25 31 -13 32 -12 32 12 0 22 -4 25 -36 25 -23 0 -34 -4 -32 -12z"/><path id="pzv5iBl9S" d="M10965 7286 c-11 -7 -33 -16 -49 -20 -15 -4 -47 -15 -70 -26 -68 -31 -367 -156 -433 -181 l-62 -24 -21 -95 c-12 -52 -26 -109 -31 -126 -28 -93 -69 -419 -78 -629 -14 -296 8 -612 60 -875 22 -111 65 -289 71 -295 8 -7 389 -167 504 -211 52 -19 138 -56 167 -71 4 -2 7 7 7 21 0 17 -6 26 -15 26 -12 0 -13 4 -6 18 6 11 16 36 24 58 25 68 109 269 117 279 4 6 26 57 48 115 48 124 96 239 121 295 10 22 49 116 87 209 45 110 75 171 86 174 15 4 15 7 0 48 -15 41 -15 47 0 89 16 42 16 45 0 45 -12 0 -26 22 -47 78 -16 42 -37 93 -47 112 -10 19 -18 38 -18 42 0 3 -13 35 -28 70 -30 65 -55 127 -77 188 -23 64 -48 124 -76 185 -15 33 -44 101 -64 150 -55 133 -65 156 -84 200 -10 22 -26 68 -37 102 -10 35 -21 63 -24 63 -3 0 -14 -6 -25 -14z"/><path id="pjuV3XJwk" d="M16975 7261 c-3 -16 -13 -35 -21 -42 -8 -6 -14 -18 -14 -25 0 -15 -41 -122 -85 -219 -14 -33 -30 -69 -34 -80 -5 -11 -21 -49 -36 -85 -15 -36 -47 -114 -72 -175 -25 -60 -58 -139 -75 -175 -16 -36 -48 -114 -70 -175 -22 -60 -51 -132 -63 -160 -29 -63 -27 -168 3 -236 11 -24 35 -75 52 -114 18 -38 45 -104 60 -146 26 -69 109 -276 130 -324 5 -11 22 -50 39 -86 17 -37 31 -72 31 -78 0 -6 4 -19 10 -29 5 -9 24 -51 41 -92 69 -166 97 -240 88 -240 -5 0 -9 -9 -9 -20 0 -23 26 -27 55 -7 23 16 158 74 298 128 54 21 123 50 154 64 31 15 80 34 109 43 59 19 50 1 98 202 13 58 29 137 36 175 6 39 13 81 15 95 70 420 45 1002 -62 1440 -28 113 -38 140 -54 140 -6 0 -29 8 -52 19 -100 45 -194 84 -370 155 -103 42 -190 76 -192 76 -2 0 -6 -13 -10 -29z"/><path id="poHK8QF9F" d="M16063 7068 c19 -46 37 -48 37 -4 0 32 -3 36 -25 36 -24 0 -25 -1 -12 -32z"/><path id="pzdFgrAQp" d="M9509 6431 c-20 -4 -58 -18 -85 -30 -142 -67 -219 -190 -219 -352 1 -67 5 -85 37 -150 70 -141 194 -219 348 -219 59 0 154 31 185 60 12 11 26 20 32 20 6 0 33 24 60 54 96 105 119 264 58 401 -39 89 -123 168 -212 199 -49 17 -158 26 -204 17z"/><path id="p1HpVcoEYA" d="M18285 6347 c-155 -51 -261 -186 -273 -348 -8 -108 37 -219 117 -291 62 -56 127 -87 207 -101 55 -10 76 -9 131 6 35 9 80 24 98 33 42 20 155 121 155 140 0 7 11 38 24 69 21 47 24 67 21 134 -7 162 -104 298 -247 348 -60 21 -184 26 -233 10z"/><path id="p6r4heUA7" d="M11940 4806 c0 -32 3 -36 25 -36 24 0 25 1 12 32 -19 46 -37 48 -37 4z"/><path id="pnHqVLt8u" d="M15855 4470 c-20 -38 -19 -40 10 -40 22 0 25 4 25 35 0 43 -14 45 -35 5z"/><path id="poilsYD8a" d="M13880 3531 c0 -12 -12 -23 -32 -32 -18 -7 -62 -26 -98 -42 -36 -16 -92 -40 -125 -52 -92 -35 -309 -128 -418 -179 -54 -25 -105 -46 -113 -46 -14 0 -284 -108 -341 -137 -18 -9 -33 -22 -33 -29 0 -7 18 -55 39 -106 22 -51 63 -149 91 -218 29 -69 65 -154 80 -190 15 -36 31 -75 34 -87 8 -24 11 -26 186 -67 261 -63 720 -105 1000 -91 245 12 579 62 770 116 l76 21 98 237 c106 256 114 274 144 341 36 82 37 90 8 90 -14 0 -26 -5 -26 -10 0 -6 -11 -5 -27 4 -25 13 -159 67 -288 118 -27 11 -63 26 -80 33 -56 26 -240 102 -335 140 -52 20 -99 41 -104 46 -6 5 -16 9 -23 9 -7 0 -36 11 -65 23 -29 13 -91 39 -138 57 -47 18 -90 39 -97 47 -9 11 -16 12 -32 4 -27 -15 -62 -14 -104 4 -46 19 -47 19 -47 -4z"/><path id="p4CUl0FH3" d="M13849 1986 c-91 -24 -171 -86 -229 -175 -35 -56 -40 -72 -47 -160 -24 -295 283 -501 547 -366 73 37 127 91 160 159 94 191 25 420 -155 510 -92 46 -186 57 -276 32z"/></g></g><g id="l5VMJMZgqzIlr0B73qCGL53" fill="rgb(10,72,142)" style="transform: none;"><g style="transform: none;"><path id="pjtmC6e60" d="M12691 8962 c-18 -48 -74 -184 -124 -302 -49 -118 -116 -278 -148 -355 -31 -77 -91 -220 -132 -317 -45 -107 -70 -179 -63 -181 6 -2 42 11 81 28 38 18 117 51 175 75 58 23 124 50 147 61 23 10 44 19 47 19 5 0 398 160 441 180 11 5 85 36 165 70 80 33 154 65 165 69 11 5 101 41 200 81 99 40 203 83 230 96 28 12 63 28 79 34 l30 11 -30 15 c-16 9 -57 26 -92 40 -34 13 -77 30 -95 38 -35 17 -342 144 -499 207 -53 21 -103 39 -111 39 -8 0 -20 7 -27 15 -7 8 -45 25 -84 36 -39 12 -75 25 -81 29 -13 10 -194 87 -220 94 -17 5 -25 -7 -54 -82z"/><path id="pyaiNeB9Q" d="M15200 9033 c-19 -8 -127 -52 -240 -98 -113 -45 -231 -95 -264 -110 -32 -15 -97 -42 -145 -60 -87 -34 -150 -60 -228 -96 -24 -10 -49 -19 -56 -19 -7 0 -17 -4 -22 -8 -6 -5 -63 -30 -127 -56 -65 -27 -118 -50 -118 -52 0 -8 98 -50 380 -166 162 -66 313 -128 335 -138 22 -10 108 -46 190 -79 83 -34 159 -66 170 -70 57 -25 280 -118 430 -179 245 -101 265 -110 265 -123 0 -6 6 -25 14 -42 25 -54 126 -296 181 -432 30 -71 71 -173 93 -225 22 -52 90 -216 151 -365 62 -148 126 -301 142 -340 16 -38 53 -128 83 -200 29 -71 58 -131 64 -133 13 -4 46 65 100 213 22 61 54 139 70 175 17 36 50 115 75 175 25 61 57 139 72 175 15 36 31 74 35 85 5 11 22 49 38 85 16 36 41 99 56 140 16 41 32 82 37 90 12 19 25 49 33 76 6 19 -4 26 -96 64 -57 24 -148 62 -203 85 -112 47 -584 242 -801 329 -109 45 -144 63 -156 84 -9 15 -61 140 -117 277 -56 138 -110 266 -120 285 -10 19 -22 46 -26 60 -4 14 -36 94 -71 177 -35 84 -64 159 -64 167 0 8 -3 16 -7 18 -5 2 -28 53 -52 113 -24 61 -48 115 -55 122 -8 9 -19 8 -46 -4z"/><path id="p18u73VJOm" d="M12150 7776 c-25 -12 -76 -33 -115 -48 -38 -15 -119 -48 -180 -73 -60 -26 -137 -57 -170 -70 -33 -13 -123 -50 -200 -83 -77 -33 -196 -83 -265 -111 -69 -29 -144 -61 -168 -71 -23 -11 -48 -20 -55 -20 -6 0 -20 -7 -30 -14 -16 -13 -16 -16 8 -64 14 -27 25 -55 25 -61 0 -6 9 -30 19 -53 21 -46 28 -62 86 -203 20 -49 49 -117 64 -150 27 -58 45 -103 76 -185 29 -76 49 -125 75 -185 15 -33 31 -71 35 -85 4 -14 11 -29 15 -35 4 -5 24 -52 44 -102 19 -51 40 -102 46 -114 16 -29 -3 -71 295 651 69 168 130 314 135 325 37 76 310 752 308 761 -2 8 -18 5 -48 -10z"/><path id="puguZki7y" d="M11386 5808 c-44 -106 -87 -211 -97 -233 -25 -56 -73 -171 -121 -295 -22 -58 -44 -109 -48 -115 -8 -10 -92 -210 -117 -278 -7 -22 -23 -57 -34 -79 -11 -22 -19 -41 -17 -42 2 -1 39 -17 83 -36 44 -18 119 -50 168 -72 48 -21 89 -38 92 -38 7 0 315 -126 440 -179 294 -126 437 -182 451 -177 12 4 11 11 -1 38 -8 18 -49 116 -91 218 -42 102 -126 304 -186 450 -127 306 -235 568 -285 690 -19 47 -41 99 -48 115 -7 17 -32 74 -55 128 -23 53 -45 97 -49 97 -4 0 -42 -87 -85 -192z"/><path id="pHkre6ldU" d="M16481 5978 c-5 -13 -32 -79 -61 -148 -29 -69 -74 -177 -100 -240 -51 -122 -274 -660 -391 -945 -39 -93 -79 -189 -90 -212 -10 -24 -19 -46 -19 -49 0 -4 -12 -33 -26 -65 -15 -33 -24 -62 -20 -66 3 -4 37 7 74 24 37 17 114 50 172 73 58 23 177 73 265 110 242 104 467 197 595 247 137 53 148 61 127 94 -9 13 -23 44 -33 69 -25 66 -103 252 -114 272 -6 10 -10 23 -10 29 0 6 -14 41 -31 78 -17 36 -34 75 -39 86 -21 48 -104 255 -130 324 -15 42 -42 108 -60 146 -17 39 -39 85 -47 104 -9 19 -19 46 -22 60 -9 33 -29 38 -40 9z"/><path id="pBA2CBBUz" d="M12216 4223 c3 -10 12 -32 20 -49 20 -45 82 -198 176 -429 44 -110 83 -204 87 -210 4 -5 56 -129 116 -275 59 -146 110 -267 112 -270 2 -2 23 6 46 18 60 31 334 142 351 142 8 0 59 21 113 46 109 51 326 144 418 179 33 12 89 36 125 52 36 16 91 40 123 52 31 13 57 26 57 30 0 9 -159 81 -335 151 -38 15 -232 95 -430 177 -198 82 -379 157 -402 166 -23 9 -61 25 -85 36 -50 22 -239 100 -317 131 -30 11 -73 29 -95 39 -71 32 -87 35 -80 14z"/><path id="puWjVGh0F" d="M15500 4139 c-297 -125 -306 -129 -720 -299 -190 -78 -358 -148 -375 -156 -16 -7 -105 -44 -196 -81 -91 -38 -176 -75 -189 -84 -23 -15 -21 -16 86 -59 60 -24 133 -54 162 -66 29 -13 58 -24 65 -24 7 0 17 -4 23 -9 5 -5 52 -26 104 -46 97 -39 289 -118 325 -135 29 -14 214 -89 259 -106 21 -8 74 -30 118 -50 80 -36 87 -37 92 -12 2 7 10 29 19 49 9 19 47 111 85 205 38 93 122 295 187 449 65 154 126 303 137 330 11 28 23 55 27 60 18 23 49 135 38 134 -7 0 -118 -45 -247 -100z"/></g></g></svg>