<?xml version="1.0" encoding="utf-8"?>
<svg viewBox="0 0 500 500" xmlns="http://www.w3.org/2000/svg">
  <path class="cls-1" d="M 211.601 260.841 L 70.204 204.016 L 70.204 239.263 L 212.277 301.416 C 212.943 301.728 213.726 301.656 214.327 301.232 C 214.933 300.853 215.298 300.185 215.29 299.47 L 215.29 266.169 C 215.282 263.801 213.816 261.682 211.601 260.841 Z" style="fill: rgb(0, 69, 141);" transform="matrix(1, 0, 0, 1, 5.684341886080802e-14, 0)"/>
  <path class="cls-1" d="M 455.46 279.244 C 455.46 264.899 461.608 248.013 476.793 216.476 L 258.119 312.113 L 258.119 251.743 C 258.119 249.397 259.547 247.286 261.726 246.415 L 437.96 175.573 C 436.368 180.497 435.29 185.571 434.743 190.717 C 434.021 196.25 437.714 201.393 443.185 202.479 C 448.329 203.627 453.759 201.168 455.481 194.282 C 456.372 188.881 457.78 183.577 459.682 178.442 C 465.153 164.835 471.301 149.609 471.301 149.609 L 247.381 81.062 L 27.17 148.441 L 27.17 324.204 L 247.381 428.305 L 472.797 321.745 L 464.805 309.818 C 458.735 300.775 455.483 290.135 455.46 279.244 Z M 222.216 329.224 L 70.204 262.706 L 70.204 320.823 L 48.728 310.576 L 48.728 253.198 L 48.728 229.878 L 48.728 195.286 L 48.728 172.274 L 70.204 180.778 L 70.204 180.901 L 230.27 245.267 C 234.178 246.825 236.737 250.61 236.725 254.817 L 236.725 319.777 C 236.819 327.296 229.055 332.354 222.216 329.224 Z M 70.204 157.765 L 247.381 103.604 L 424.722 157.765 L 247.606 229.099 L 70.204 157.765 Z M 258.221 399.575 L 258.221 335.413 L 437.222 257.296 C 431.644 275.705 433.226 295.539 441.648 312.831 L 258.221 399.575 Z" style="fill: rgb(0, 69, 141);" transform="matrix(1, 0, 0, 1, 5.684341886080802e-14, 0)"/>
</svg>