<?xml version="1.0" encoding="utf-8"?>
<svg viewBox="0 0 500 500" xmlns="http://www.w3.org/2000/svg">
  <g transform="matrix(1.1789270639419556, 0, 0, 1.1789270639419556, -35.19365692138672, -26.17910194396967)">
    <path d="M 421.931 328.499 L 276.457 255.794 L 327.568 230.237 L 401.871 267.389 L 432.761 248.223 L 329.293 196.505 L 327.568 195.642 L 190.783 127.281 L 241.893 101.726 L 316.196 138.845 L 347.086 119.678 L 241.926 67.162 L 140.822 117.73 L 140.822 203.405 L 63.453 242.089 L 55.115 246.242 L 55.115 265.409 L 70.544 273.139 L 207.585 341.467 L 156.474 367.024 L 81.948 329.872 L 80.128 331.022 L 56.968 345.333 L 51.058 348.975 L 156.282 401.555 L 241.957 358.718 L 327.664 401.555 L 428.735 351.019 L 428.735 331.852 L 421.899 328.434 L 421.931 328.499 Z M 331.273 120.477 L 315.812 130.06 L 245.919 94.986 L 245.919 77.831 L 331.273 120.477 Z M 404.745 328.499 L 402.573 329.585 L 387.463 337.155 L 257.482 272.149 L 257.482 254.867 L 404.745 328.499 Z M 417.044 248.989 L 401.583 258.572 L 336.352 225.957 L 353.602 217.332 L 417.044 248.989 Z M 327.599 204.267 L 328.654 204.81 L 344.946 212.956 L 325.938 222.539 L 267.896 251.545 L 264.701 249.98 L 250.614 242.92 L 301.725 217.365 L 327.599 204.267 Z M 157.976 222.412 L 152.609 219.728 L 168.038 210.144 L 180.432 216.342 L 245.598 248.925 L 230.138 258.509 L 157.976 222.412 Z M 226.496 265.28 L 226.496 316.392 L 105.108 255.698 L 156.218 230.142 L 226.496 265.28 Z M 241.926 238.479 L 183.883 209.474 L 171.68 203.372 L 171.68 152.262 L 293.067 212.956 L 241.926 238.479 Z M 318.974 199.954 L 317.378 200.753 L 301.693 208.579 L 171.68 143.637 L 171.68 136.801 L 182.029 131.594 L 318.974 199.954 Z M 238.06 77.831 L 238.06 95.082 L 168.006 130.22 L 152.545 120.637 L 238.06 77.831 Z M 148.616 205.896 L 148.616 127.026 L 164.076 136.609 L 164.076 203.692 L 148.616 213.275 L 148.616 205.896 Z M 70.544 264.418 L 62.845 260.585 L 62.845 251.001 L 72.429 246.306 L 140.79 211.997 L 140.79 222.475 L 147.594 225.861 L 70.544 264.418 Z M 156.282 392.929 L 66.839 348.208 L 82.268 338.625 L 156.187 375.552 L 215.954 345.685 L 233.205 354.31 L 156.282 392.929 Z M 323.798 390.981 L 79.169 268.731 L 96.483 260.106 L 323.798 373.732 L 323.798 390.981 Z M 257.386 331.885 L 257.386 280.774 L 378.775 341.467 L 327.664 367.024 L 257.386 331.885 Z M 421.005 346.26 L 331.561 390.981 L 331.561 373.732 L 387.432 345.78 L 413.339 332.811 L 421.068 336.676 L 421.005 346.26 Z" style=""/>
    <polygon class="cls-1" points="148.52 127.057 163.98 136.577 163.98 148.396 163.98 203.628 148.52 213.179 148.52 205.8 148.52 205.8 148.52 127.057" style="fill: rgb(0, 170, 225);"/>
    <polygon class="cls-1" points="238.092 94.986 168.038 129.996 152.577 120.445 238.06 77.736 238.092 94.986" style="fill: rgb(0, 170, 225);"/>
    <polygon class="cls-1" points="168.038 210.209 180.432 216.406 180.432 216.406 245.598 248.989 230.138 258.509 157.976 222.443 157.976 222.443 152.609 219.76 168.038 210.209" style="fill: rgb(0, 170, 225);"/>
    <polygon class="cls-1" points="315.811 129.996 245.79 94.986 245.79 77.736 331.273 120.477 315.811 129.996" style="fill: rgb(0, 170, 225);"/>
    <polygon class="cls-1" points="156.282 392.929 66.935 348.271 82.364 338.721 156.282 375.648 216.049 345.78 233.301 354.406 156.282 392.929" style="fill: rgb(0, 170, 225);"/>
    <polygon class="cls-1" points="234.195 265.089 249.655 255.538 249.655 276.908 249.655 328.019 234.195 320.32 234.195 265.089" style="fill: rgb(0, 170, 225);"/>
    <polygon class="cls-2" points="402.477 329.585 387.367 337.155 257.385 272.149 257.385 254.867 404.648 328.499 402.477 329.585" style="fill: rgb(0, 69, 141);"/>
    <polygon class="cls-2" points="344.88 212.956 325.875 222.443 325.875 222.443 267.831 251.449 264.669 249.884 250.582 242.824 301.693 217.269 301.693 217.269 327.599 204.299 328.654 204.842 344.88 212.956" style="fill: rgb(0, 69, 141);"/>
    <polygon class="cls-2" points="401.487 258.509 336.255 225.893 353.505 217.269 416.948 248.989 401.487 258.509" style="fill: rgb(0, 69, 141);"/>
    <polygon class="cls-2" points="318.974 199.987 317.378 200.785 301.693 208.611 171.711 143.637 171.711 136.833 182.158 131.594 318.974 199.987" style="fill: rgb(0, 69, 141);"/>
    <polygon class="cls-2" points="140.79 222.508 147.626 225.893 70.544 264.418 62.845 260.585 62.845 251.033 72.301 246.306 72.301 246.273 140.79 212.03 140.79 222.508" style="fill: rgb(0, 69, 141);"/>
    <polygon class="cls-2" points="96.483 260.106 323.798 373.732 323.798 390.981 79.169 268.731 96.483 260.106" style="fill: rgb(0, 69, 141);"/>
    <polygon class="cls-2" points="421.005 336.676 421.005 346.26 331.497 390.981 331.497 373.732 387.367 345.78 387.367 345.78 413.273 332.811 421.005 336.676" style="fill: rgb(0, 69, 141);"/>
  </g>
</svg>